# xmcd
#
# Track frame offsets: 
#        150
#        16015
#        31203
#        46394
#        61294
#        77450
#        93342
#        109807
#        126192
#        141141
#
# Disc length: 2065 seconds
#
# Revision: 3
# Processed by: cddbd v1.5.2PL0 Copyright (c) Steve Scherf et al.
# Submitted via: ExactAudioCopy v0.99pb5
#
DISCID=75080f0a
DTITLE=Pupo - Piu Di Prima
DYEAR=2001
DGENRE=
TTITLE0=Cosa Farai (Barabani-Milani-Ghinazzi)
TTITLE1=Piu Di Prima (Pace-Ghinazzi)
TTITLE2=Su Di Noi (Barabani-Miani-Ghinazzi)
TTITLE3=Piccola Tu (Dossena-Milani-Ghinazzi)
TTITLE4=Un Nuovo Giorno (Pace-Milani-Ghinazzi)
TTITLE5=Bravo (Cassella-Ghinazzi)
TTITLE6=Firenze S. Maria Novella (Barabani-Ghinazzi)
TTITLE7=S. Francisco (Dossena-Barabani-Ghinazzi)
TTITLE8=Innamorata (Albertelli-Barabani-Ghinazzi)
TTITLE9=Lucia
EXTD=YEAR: 2001
EXTT0=
EXTT1=
EXTT2=
EXTT3=
EXTT4=
EXTT5=
EXTT6=
EXTT7=
EXTT8=
EXTT9=
PLAYORDER=
